# xmcd CD database file
#
# Track frame offsets:
#	182
#	12305
#	27127
#	41355
#	54570
#	74695
#	88600
#	103002
#	117407
#	134010
#
# Disc length: 1976 seconds
#
# Revision: 0
# Processed by: cddbd v1.5.1PL0 Copyright (c) Steve Scherf et al.
# Submitted via: CDex 1.51
#
DISCID=8907b60a
DTITLE=Royce Berry - After All These Years
DYEAR=1992
DGENRE=Country
TTITLE0=Don't fan the flames
TTITLE1=Love could survive
TTITLE2=Good mornin' Austin
TTITLE3=Beatup Pickup Truck
TTITLE4=A flame that won't go out
TTITLE5=Cowboy's need their country
TTITLE6=Outside those swinging doors
TTITLE7=One more beer
TTITLE8=After all these years
TTITLE9=Old black cloud
EXTD=YEAR: 1992
EXTT0=
EXTT1=
EXTT2=
EXTT3=
EXTT4=
EXTT5=
EXTT6=
EXTT7=
EXTT8=
EXTT9=
PLAYORDER=
